<?xml version="1.0" encoding="iso-8859-1"?>
<!-- Generator: Adobe Illustrator 16.0.0, SVG Export Plug-In . SVG Version: 6.00 Build 0)  -->
<!DOCTYPE svg PUBLIC "-//W3C//DTD SVG 1.1//EN" "http://www.w3.org/Graphics/SVG/1.1/DTD/svg11.dtd">
<svg version="1.1" id="Layer_1" xmlns="http://www.w3.org/2000/svg" xmlns:xlink="http://www.w3.org/1999/xlink" x="0px" y="0px"
	 width="668.288px" height="185.975px" viewBox="0 0 668.288 185.975" style="enable-background:new 0 0 668.288 185.975;"
	 xml:space="preserve">
<g>
	<polygon style="fill:#F6EB14;" points="0,3.634 0,160.264 42.987,160.264 42.987,145.441 14.824,145.441 14.824,3.634 	"/>
	<path style="fill:#F6EB14;" d="M94.09,17.773V3.634H51.34v37.389H39.903l5.624,15h5.626c0,0,0.032,38.305,0.501,77.235
		c0.473,39.305,41.686,51.762,41.686,51.762l-0.188-15.75c0,0-26.639-15.07-26.639-36.685c0-21.615-0.439-76.896-0.439-76.896
		l31.578,0.146L92.027,41.21l-26.062-0.188v-23.25H94.09z"/>
	<path style="fill:#F6EB14;" d="M166.276,28.46l7.875,4.125c0,0-0.371,0.448,11.273-18.91c7.251-20.45-29.517-14.793-13.418,4.568
		C169.004,23.251,166.276,28.46,166.276,28.46z"/>
	<path style="fill:#F6EB14;" d="M253.808,18.178V3.104c0,0-9.219,0-19.615,0c-19.592,0-43.687,24.755-31.055,46.493
		c11.369,19.566,26.305,42.573,44.676,71.554c16.389,32.586-14.084,46.673-29.24,46.673c-15.154,0-21.793,0-21.793,0v15.256
		c0,0,16.549-0.448,29.693-0.625c23.887-0.32,53.238-36.292,37.322-62.938c-19.711-32.997-38.924-61.422-46.676-76.276
		c-6.668-13.592,11.771-25.519,16.891-25.426C239.13,17.908,253.808,18.178,253.808,18.178z"/>
	<path style="fill:#F6EB14;" d="M151.839,17.773V3.634H109.09v37.389H97.652l5.625,14.999h5.625c0,0,0.032,38.306,0.5,77.236
		c0.475,39.305,41.687,51.762,41.687,51.762l-0.188-15.75c0,0-26.639-15.07-26.639-36.685c0-21.615-0.439-76.896-0.439-76.896
		l31.578,0.146l-5.625-14.625l-26.062-0.188v-23.25H151.839z"/>
	<path style="fill:#F6EB14;" d="M381.663,18.178V3.104c0,0-9.221,0-19.615,0c-19.592,0-43.686,24.755-31.055,46.493
		c11.369,19.566,26.305,42.573,44.676,71.554c16.385,32.586-14.084,46.673-29.24,46.673c-15.154,0-21.791,0-21.791,0v15.256
		c0,0,16.549-0.448,29.691-0.625c23.887-0.32,53.238-36.292,37.322-62.938c-19.711-32.997-38.924-61.422-46.674-76.276
		c-6.67-13.592,11.77-25.519,16.889-25.426C366.985,17.908,381.663,18.178,381.663,18.178z"/>
	<path style="fill:#F6EB14;" d="M400.981,24.564c-0.336,9.686-0.285,16.321-0.285,16.321l-10.16-0.017l4.854,14.854h5.229
		l0.238,130.16l14.893-13.537V55.748h22.146l0.02,103.906l14.721,0.17c0,0,0-118.616,0-135.2
		C452.636-6.172,402.196-10.162,400.981,24.564z M437.853,40.752h-22.219c0,0,0-2.64,0-14.746c0-13.419,22.219-13.18,22.219,0
		S437.853,40.752,437.853,40.752z"/>
	<path style="fill:#F6EB14;" d="M550.741,0.299c-27.295,0-49.422,22.127-49.422,49.42s22.127,49.419,49.422,49.419
		c27.291,0,49.416-22.126,49.416-49.419S578.032,0.299,550.741,0.299z M550.741,83.196c-18.49,0-33.479-14.989-33.479-33.477
		c0-18.489,14.988-33.478,33.479-33.478c18.488,0,33.477,14.989,33.477,33.478C584.218,68.207,569.229,83.196,550.741,83.196z"/>
	<polygon style="fill:#F6EB14;" points="609.917,-1.13 609.917,38.05 609.917,94.288 609.917,185.975 625.11,172.381 625.11,24.723 
		653.095,42.314 653.091,159.691 668.288,159.683 668.288,3.134 653.095,3.134 653.095,25.256 	"/>
	<polygon style="fill:#F6EB14;" points="472.255,3.634 472.255,160.264 515.241,160.264 515.241,145.441 487.077,145.441 
		487.077,3.634 	"/>
</g>
</svg>
